<svg id="logo-linkedin" xmlns="http://www.w3.org/2000/svg" width="16.005" height="16.005" viewBox="0 0 16.005 16.005">
  <path id="Tracé_201" data-name="Tracé 201" d="M14.822,0H1.181A1.168,1.168,0,0,0,0,1.154v13.7a1.169,1.169,0,0,0,1.181,1.155h13.64a1.171,1.171,0,0,0,1.184-1.155V1.154A1.17,1.17,0,0,0,14.822,0Z" transform="translate(-0.001)" fill="#57ffd2"/>
  <path id="Tracé_202" data-name="Tracé 202" d="M6.736,10.4H9.112v7.638H6.736Zm1.189-3.8A1.377,1.377,0,1,1,6.548,7.985,1.377,1.377,0,0,1,7.925,6.608" transform="translate(-4.365 -4.405)" fill="#0071ae"/>
  <path id="Tracé_203" data-name="Tracé 203" d="M18.705,17.616h2.276V18.66h.033a2.494,2.494,0,0,1,2.246-1.234c2.4,0,2.848,1.582,2.848,3.639v4.189H23.733V21.54c0-.886-.015-2.025-1.233-2.025-1.235,0-1.424.965-1.424,1.962v3.778H18.705V17.616Z" transform="translate(-12.468 -11.616)" fill="#0071ae"/>
</svg>
