<svg id="Groupe_267" data-name="Groupe 267" xmlns="http://www.w3.org/2000/svg" width="16" height="11.253" viewBox="0 0 16 11.253">
  <g id="logo-youtube">
    <path id="Tracé_204" data-name="Tracé 204" d="M15.84,9.548A3.462,3.462,0,0,0,15.2,7.959a2.288,2.288,0,0,0-1.6-.678C11.362,7.12,8,7.12,8,7.12H8s-3.358,0-5.6.162a2.289,2.289,0,0,0-1.6.678A3.46,3.46,0,0,0,.16,9.548,24.2,24.2,0,0,0,0,12.137v1.214a24.2,24.2,0,0,0,.16,2.59A3.46,3.46,0,0,0,.8,17.529a2.713,2.713,0,0,0,1.764.684c1.28.123,5.44.161,5.44.161s3.362-.005,5.6-.167a2.288,2.288,0,0,0,1.6-.678,3.462,3.462,0,0,0,.636-1.588,24.233,24.233,0,0,0,.16-2.59V12.137A24.232,24.232,0,0,0,15.84,9.548Z" transform="translate(0 -7.12)" fill="#57ffd2"/>
    <path id="Tracé_205" data-name="Tracé 205" d="M19.043,21.245V16.739L23.375,19Z" transform="translate(-12.7 -13.538)" fill="#0071ae"/>
  </g>
</svg>
