<svg xmlns="http://www.w3.org/2000/svg" xmlns:xlink="http://www.w3.org/1999/xlink" width="139.857" height="40.074" viewBox="0 0 139.857 40.074">
  <defs>
    <linearGradient id="linear-gradient" x1="0.5" x2="0.5" y2="0.78" gradientUnits="objectBoundingBox">
      <stop offset="0" stop-color="#073654"/>
      <stop offset="1" stop-color="#00476e"/>
    </linearGradient>
  </defs>
  <g id="Logo" transform="translate(-125 -21)">
    <g id="LOGO-2" data-name="LOGO" transform="translate(125 21)">
      <g id="Groupe_262" data-name="Groupe 262" transform="translate(-125 -21)">
        <g id="Groupe_202" data-name="Groupe 202" transform="translate(125.154 21)">
          <path id="Tracé_198" data-name="Tracé 198" d="M5.8,11.455h5.752V8.194H5.8Zm0-7.728h6.1V.427H5.8ZM11.9,16.62H5.8V20h6.1ZM.4,20H5.109V.427H.4ZM24.527.427,22.21,5.281l2.162,3.728L29.506.427ZM18.466,10.8,13.216,20h4.941L20.7,14.523ZM13.255.427,24.874,19.96h5.057L18.273.427ZM31.9,20h4.632V.427H31.9Zm5.482-11.65v3.262H39c4.787,0,6.948-1.825,6.948-5.98,0-3.456-2.355-5.165-7.064-5.165H37.381v3.3H39c1.544,0,2.2.777,2.2,2.446A1.982,1.982,0,0,1,39,8.427H37.381Zm15.711,3.107h5.752V8.194H53.092Zm0-7.728h6.1V.427h-6.1Zm6.1,12.892h-6.1V20h6.1ZM47.688,20h4.671V.427h-4.71V20ZM66.6,3.767h1.621c1.737,0,2.509.582,2.509,1.98v9.164c0,1.165-.733,1.709-2.471,1.709H66.6v3.34h2.355c4.4,0,6.562-1.864,6.562-5.592V5.941C75.52,2.252,73.32.427,69,.427H66.6ZM61.237,20H65.87V.427H61.237Zm16.715,0h4.787V.427H77.952ZM84.476,3.728H98.952V.427H84.476ZM89.34,20h4.671V4.5H89.34Zm11.195,0h4.787V.427h-4.787Zm7.257-5.592c0,3.806,2.239,5.786,6.755,5.98V17.241a1.92,1.92,0,0,1-1.969-2.1V5.281a1.889,1.889,0,0,1,1.969-2.058V.039c-4.478.116-6.755,1.942-6.755,5.436Zm9.612.738c0,1.281-.656,1.98-2.046,2.1v3.145c4.594-.116,6.91-2.058,6.91-5.864V5.592c0-3.689-2.316-5.553-6.91-5.592V3.223c1.351.116,2.046.815,2.046,2.058ZM134.7,11.96l-5.1-9.98v6.8l5.1,9.9ZM124.7,20h4.362V.427H124.7Zm10.538,0h4.439V.427h-4.439Z" transform="translate(-0.4 0)" fill="#0071ae"/>
        </g>
        <g id="Groupe_203" data-name="Groupe 203" transform="translate(125 43.872)">
          <path id="Tracé_199" data-name="Tracé 199" d="M10.307,59.288H0v2.757H10.307ZM1.853,75.753h3.86l4.439-13.2H6.408Zm16.329-12H16.02v.194a.746.746,0,0,1-.733.854v1.514c1.93-.078,2.9-.893,2.9-2.485Zm-2.934-.738h2.9V61.579q0-2.272-2.9-2.33v1.476a.7.7,0,0,1,.733.777v.5h-.733Zm-1.042-1.01v-.5c0-.5.232-.738.656-.777V59.249c-1.892.039-2.857.815-2.857,2.33v2.252c0,1.592.965,2.446,2.857,2.485V64.841c-.463-.078-.656-.388-.656-.893v-.932h.656v-1.01Zm17.68-.388c1.158.078,1.7.621,1.7,1.67v1.747h4.092V63.482c0-3.029-1.93-4.543-5.79-4.582Zm0,14.484c3.86-.078,5.79-1.67,5.79-4.737V69.618H33.584V71.87c0,.971-.579,1.476-1.7,1.592Zm-6.369-4.854c0,3.107,1.853,4.7,5.6,4.854V73.462c-1.042-.155-1.583-.66-1.583-1.592V63.327c0-.971.5-1.514,1.583-1.631V58.978c-3.744.155-5.6,1.67-5.6,4.466Zm14.013-.194c0,3.184,1.892,4.893,5.675,5.009V73.423a1.6,1.6,0,0,1-1.66-1.747v-8.31a1.625,1.625,0,0,1,1.66-1.747V58.939c-3.783.116-5.675,1.631-5.675,4.582Zm8.107.621a1.6,1.6,0,0,1-1.7,1.747v2.641c3.86-.078,5.79-1.709,5.79-4.932V63.637c0-3.107-1.93-4.66-5.79-4.7v2.718c1.158.117,1.7.7,1.7,1.747ZM62.189,69,57.9,60.609v5.708l4.285,8.31Zm-8.415,6.757H57.44V59.288H53.773Zm8.879,0H66.4V59.288H62.652Zm5.134-13.669h12.16V59.327H67.786Zm4.13,13.669h3.937V62.706H71.916Zm9.419,0h4.053V59.288H81.335ZM95.927,69l-4.285-8.388v5.708l4.285,8.31Zm-8.415,6.757h3.667V59.288H87.512Zm8.879,0h3.744V59.288H96.39Zm10.423-7.184h4.825V65.812h-4.825Zm0-6.485h5.134V59.327h-5.134Zm5.134,10.834h-5.134v2.835h5.134Zm-9.689,2.835H106.2V59.288h-3.937ZM122.1,69l-4.285-8.388v5.708l4.285,8.31Zm-8.415,6.757h3.667V59.288h-3.667Zm8.879,0h3.744V59.288h-3.744ZM127.7,62.084h12.16V59.327H127.7Zm4.13,13.669h3.937V62.706h-3.937Z" transform="translate(0 -58.9)" fill="url(#linear-gradient)"/>
        </g>
      </g>
    </g>
  </g>
</svg>
